<?xml version="1.0" standalone="no"?>
<!DOCTYPE svg PUBLIC "-//W3C//DTD SVG 20010904//EN"
 "http://www.w3.org/TR/2001/REC-SVG-20010904/DTD/svg10.dtd">
<svg version="1.0" xmlns="http://www.w3.org/2000/svg"
 width="327.000000pt" height="327.000000pt" viewBox="0 0 327.000000 327.000000"
 preserveAspectRatio="xMidYMid meet">
<metadata>
Created by potrace 1.11, written by Peter Selinger 2001-2013
</metadata>
<g transform="translate(0.000000,327.000000) scale(0.100000,-0.100000)"
fill="#000000" stroke="none">
<path d="M1552 3118 c-45 -15 -119 -82 -143 -130 -62 -122 -8 -277 119 -339
l47 -24 -73 -8 c-170 -19 -367 -88 -517 -182 -74 -47 -90 -53 -139 -54 -31 0
-73 -5 -94 -11 -37 -9 -426 -227 -543 -302 -73 -48 -113 -92 -146 -163 l-28
-60 -3 -323 c-3 -276 -1 -331 13 -380 31 -106 93 -181 207 -246 l46 -27 4
-252 c4 -276 9 -302 66 -374 17 -22 54 -52 84 -69 l53 -29 1079 -3 c1185 -3
1133 -5 1226 57 58 39 91 89 105 157 6 30 10 148 10 263 l-1 210 98 56 c116
67 186 139 219 223 21 54 22 74 25 347 2 320 -3 379 -39 457 -45 99 -80 125
-476 353 -168 96 -217 115 -293 116 -54 1 -67 6 -122 44 -160 112 -339 175
-570 200 l-59 7 50 28 c80 46 125 125 124 220 0 94 -52 180 -135 222 -47 24
-146 32 -194 16z"/>
</g>
</svg>
